# xmcd
#
# Track frame offsets:
# 150
# 13915
# 33221
# 50962
# 77347
# 95504
# 114366
# 130179
# 151181
# 166438
# 182741
# 201330
# 219647
# 233186
# 251728
#
# Disc length: 3564 seconds
#
#
# Revision: 0
# Processed by: cddbd v1.5.2PL0 Copyright (c) Steve Scherf et al.
# Submitted via: FreeRIP 2.80 
#
DISCID=ca0dea0f
DTITLE=SHANE SMITH and THE SAINTS - Geronimo
DYEAR=2015
DGENRE=Country
TTITLE0=The Mountain
TTITLE1=All I See Is You
TTITLE2=Oil Town
TTITLE3=New Orleans
TTITLE4=Whiskey and Water
TTITLE5=Right Side Of The Ground
TTITLE6=I Can Hear Him Now
TTITLE7=Suzannah
TTITLE8=Crockett's Prayer
TTITLE9=Lord Bury Me In Texas
TTITLE10=Born and Raised
TTITLE11=When All Is Lost
TTITLE12=Runaway Train
TTITLE13=What A Shame
TTITLE14=Geronimo
EXTD=
EXTT0=
EXTT1=
EXTT2=
EXTT3=
EXTT4=
EXTT5=
EXTT6=
EXTT7=
EXTT8=
EXTT9=
EXTT10=
EXTT11=
EXTT12=
EXTT13=
EXTT14=
PLAYORDER=
